<svg width="43" height="43" viewBox="0 0 43 43" fill="none" xmlns="http://www.w3.org/2000/svg">
<g clip-path="url(#clip0_1_25)">
<path d="M36.6306 36.6454H30.2707V26.6654C30.2707 24.2856 30.2209 21.2272 26.9449 21.2272C23.6285 21.2272 23.1233 23.8086 23.1233 26.4893V36.6441H16.7552V16.1237H22.872V18.9227H22.9539C23.8086 17.3062 25.8873 15.6063 28.9887 15.6063C35.4401 15.6063 36.6373 19.8539 36.6373 25.3767V36.6441L36.6306 36.6454ZM9.56078 13.3192C9.07471 13.3194 8.59339 13.2237 8.14437 13.0376C7.69535 12.8514 7.28747 12.5786 6.94408 12.2345C6.60069 11.8905 6.32854 11.4822 6.14322 11.0328C5.95791 10.5834 5.86306 10.1019 5.86412 9.61588C5.86492 8.88427 6.08263 8.16933 6.48972 7.56145C6.89682 6.95357 7.47501 6.48004 8.1512 6.20075C8.8274 5.92145 9.57122 5.84892 10.2886 5.99234C11.006 6.13575 11.6648 6.48866 12.1817 7.00645C12.6985 7.52424 13.0502 8.18366 13.1923 8.90133C13.3345 9.619 13.2606 10.3627 12.9801 11.0384C12.6995 11.7141 12.225 12.2914 11.6163 12.6974C11.0077 13.1034 10.2924 13.3198 9.56078 13.3192V13.3192ZM12.7508 36.6454H6.36937V16.125H12.7508V36.6454ZM39.8234 0H3.17125C1.42034 0 0 1.38541 0 3.10003V39.9013C0 41.6159 1.42034 43.0013 3.17125 43.0013H39.8167C41.5649 43.0013 43 41.6159 43 39.9013V3.10003C43 1.38541 41.5649 0 39.8167 0H39.8234Z" fill="#189AB4"/>
</g>
<defs>
<clipPath id="clip0_1_25">
<rect width="43" height="43" fill="white"/>
</clipPath>
</defs>
</svg>
