<svg width="225" height="180" viewBox="0 0 225 180" fill="none" xmlns="http://www.w3.org/2000/svg">
<path d="M111.199 158.906C110.461 158.906 109.723 158.695 109.055 158.344L102.305 154.336C101.285 153.773 101.777 153.563 102.129 153.457C103.465 153 103.746 152.895 105.188 152.051C105.328 151.98 105.539 152.016 105.68 152.086L110.883 155.18C111.059 155.285 111.34 155.285 111.516 155.18L131.836 143.438C132.012 143.332 132.152 143.121 132.152 142.875V119.426C132.152 119.18 132.047 118.969 131.836 118.863L111.516 107.156C111.34 107.051 111.094 107.051 110.883 107.156L90.5625 118.863C90.3516 118.969 90.2461 119.215 90.2461 119.426V142.875C90.2461 143.086 90.3867 143.297 90.5625 143.402L96.1172 146.602C99.1406 148.113 101.004 146.32 101.004 144.563V121.395C101.004 121.078 101.25 120.797 101.602 120.797H104.168C104.484 120.797 104.766 121.043 104.766 121.395V144.563C104.766 148.605 102.586 150.891 98.7539 150.891C97.5937 150.891 96.6445 150.891 94.0781 149.625L88.7344 146.566C87.4336 145.793 86.5898 144.387 86.5898 142.875V119.426C86.5898 117.914 87.3984 116.473 88.7344 115.734L109.055 103.992C110.355 103.254 112.043 103.254 113.309 103.992L133.629 115.734C134.93 116.508 135.773 117.914 135.773 119.426V142.875C135.773 144.387 134.965 145.828 133.629 146.566L113.309 158.309C112.711 158.695 111.973 158.906 111.199 158.906V158.906ZM127.617 135.773C127.617 131.379 124.664 130.219 118.406 129.375C112.078 128.531 111.445 128.109 111.445 126.633C111.445 125.402 111.973 123.785 116.648 123.785C120.832 123.785 122.379 124.699 123.012 127.512C123.082 127.793 123.293 127.969 123.574 127.969H126.211C126.387 127.969 126.527 127.898 126.633 127.793C126.738 127.652 126.809 127.512 126.773 127.336C126.352 122.484 123.152 120.234 116.648 120.234C110.848 120.234 107.402 122.695 107.402 126.773C107.402 131.238 110.848 132.434 116.402 132.996C123.047 133.664 123.574 134.613 123.574 135.914C123.574 138.199 121.746 139.148 117.457 139.148C112.078 139.148 110.883 137.813 110.496 135.141C110.461 134.859 110.215 134.648 109.898 134.648H107.262C106.945 134.648 106.664 134.895 106.664 135.246C106.664 138.656 108.527 142.734 117.422 142.734C123.926 142.734 127.617 140.203 127.617 135.773V135.773ZM146.777 118.16C146.777 120.305 145.02 122.063 142.875 122.063C140.73 122.063 138.973 120.305 138.973 118.16C138.973 115.945 140.801 114.258 142.875 114.258C144.984 114.223 146.777 115.945 146.777 118.16ZM146.145 118.16C146.145 116.332 144.668 114.891 142.84 114.891C141.047 114.891 139.57 116.332 139.57 118.16C139.57 119.988 141.047 121.465 142.84 121.465C144.668 121.43 146.145 119.953 146.145 118.16ZM144.563 120.34H143.648C143.613 120.129 143.473 119.004 143.473 118.969C143.402 118.723 143.332 118.582 143.016 118.582H142.242V120.34H141.398V115.945H142.91C143.438 115.945 144.457 115.945 144.457 117.105C144.457 117.914 143.93 118.09 143.613 118.195C144.211 118.23 144.246 118.617 144.352 119.18C144.387 119.531 144.457 120.129 144.563 120.34V120.34ZM143.578 117.246C143.578 116.648 143.156 116.648 142.945 116.648H142.242V117.879H142.91C143.473 117.879 143.578 117.492 143.578 117.246V117.246ZM48.2695 67.1485C48.2695 66.1992 47.7773 65.3555 46.9688 64.8985L25.418 52.4883C25.0664 52.2774 24.6445 52.1719 24.2227 52.1367H24.0117C23.5898 52.1367 23.2031 52.2774 22.8164 52.4883L1.30078 64.8985C0.492188 65.3555 0 66.2344 0 67.1485L0.0351563 100.547C0.0351563 101.004 0.28125 101.426 0.667969 101.672C1.05469 101.918 1.54687 101.918 1.96875 101.672L14.7656 94.3242C15.5742 93.832 16.0664 92.9883 16.0664 92.0742V76.4649C16.0664 75.5508 16.5586 74.6719 17.3672 74.2149L22.8164 71.086C23.2383 70.8399 23.6602 70.7344 24.1172 70.7344C24.5742 70.7344 25.0313 70.8399 25.418 71.086L30.8672 74.2149C31.6758 74.6719 32.168 75.5508 32.168 76.4649V92.0742C32.168 92.9883 32.6602 93.8672 33.4687 94.3242L46.2656 101.672C46.6523 101.918 47.1797 101.918 47.5664 101.672C47.9531 101.461 48.1992 101.004 48.1992 100.547L48.2695 67.1485ZM166.113 30.6914V92.7071C166.113 93.6211 165.621 94.5 164.812 94.9571L143.262 107.402C142.453 107.859 141.469 107.859 140.66 107.402L119.109 94.9571C118.301 94.5 117.809 93.6211 117.809 92.7071V67.8164C117.809 66.9024 118.301 66.0235 119.109 65.5664L140.66 53.1211C141.469 52.6641 142.453 52.6641 143.262 53.1211L148.641 56.2149C149.238 56.5664 150.012 56.1094 150.012 55.4414V22.3946C150.012 21.4102 151.066 20.7774 151.945 21.2696L164.777 28.4414C165.586 28.8633 166.113 29.7422 166.113 30.6914V30.6914ZM149.941 76.0078C149.941 75.7617 149.801 75.5508 149.625 75.4453L142.242 71.1563C142.031 71.0508 141.785 71.0508 141.574 71.1563L134.191 75.4453C133.98 75.5508 133.875 75.7617 133.875 76.0078V84.5508C133.875 84.7969 134.016 85.0078 134.191 85.1133L141.574 89.3672C141.785 89.4727 142.031 89.4727 142.207 89.3672L149.59 85.1133C149.801 85.0078 149.906 84.7969 149.906 84.5508V76.0078H149.941ZM223.699 75.7617C224.508 75.3047 225 74.4258 225 73.5117V67.5C225 66.586 224.508 65.7071 223.699 65.25L202.289 52.8047C201.48 52.3477 200.496 52.3477 199.688 52.8047L178.137 65.25C177.328 65.7071 176.836 66.586 176.836 67.5V92.3906C176.836 93.3399 177.328 94.1836 178.137 94.6406L199.547 106.84C200.32 107.297 201.305 107.297 202.113 106.84L215.051 99.6328C215.93 99.1406 215.93 97.875 215.051 97.3828L193.359 84.9375C192.937 84.6914 192.691 84.2695 192.691 83.8125V76.0078C192.691 75.5508 192.937 75.1289 193.359 74.8828L200.109 70.9805C200.496 70.7344 201.023 70.7344 201.41 70.9805L208.16 74.8828C208.547 75.1289 208.828 75.5508 208.828 76.0078V82.125C208.828 83.1094 209.918 83.7422 210.797 83.25L223.699 75.7617V75.7617ZM196.523 76.9922C196.383 77.0977 196.277 77.2383 196.277 77.4141V82.1953C196.277 82.3711 196.383 82.5469 196.523 82.6172L200.672 85.0078C200.812 85.1133 201.023 85.1133 201.164 85.0078L205.312 82.6172C205.453 82.5117 205.559 82.3711 205.559 82.1953V77.4141C205.559 77.2383 205.453 77.0625 205.312 76.9922L201.164 74.6016C201.023 74.4961 200.812 74.4961 200.672 74.6016L196.523 76.9922ZM107.156 92.2852V67.5352C107.156 66.6211 106.594 65.7422 105.785 65.2852L84.3047 52.9102C83.5664 52.4883 82.5469 52.418 81.7031 52.9102L60.2227 65.2852C59.4141 65.7422 58.8516 66.586 58.8516 67.5352V92.2852C58.8516 93.2696 59.5195 94.1133 60.2578 94.5352L81.7734 106.91C82.6172 107.402 83.6016 107.367 84.375 106.91L105.82 94.5352C106.453 94.1836 106.91 93.586 107.086 92.8828C107.121 92.7071 107.156 92.4961 107.156 92.2852ZM81.0352 48.375L80.7539 48.5508H81.1406L81.0352 48.375V48.375ZM107.824 94.1485L107.684 93.9024V94.2188L107.824 94.1485Z" fill="#05445E"/>
</svg>
