<svg width="155" height="155" viewBox="0 0 155 155" fill="none" xmlns="http://www.w3.org/2000/svg">
<path d="M122.075 16.1458H32.9246C32.0256 16.1459 31.1366 16.3336 30.3144 16.6971C29.4921 17.0605 28.7548 17.5916 28.1497 18.2564C27.5445 18.9211 27.0847 19.7049 26.7999 20.5575C26.515 21.4102 26.4113 22.3129 26.4953 23.2079L35.1753 115.775C35.2805 116.902 35.6797 117.981 36.3332 118.905C36.9866 119.829 37.8713 120.564 38.8986 121.039L74.794 137.604C75.6424 137.996 76.5656 138.199 77.5 138.199C78.4344 138.199 79.3577 137.996 80.2061 137.604L116.101 121.039C117.129 120.565 118.015 119.829 118.669 118.905C119.323 117.982 119.723 116.902 119.828 115.775L128.505 23.2079C128.589 22.3129 128.485 21.4102 128.2 20.5575C127.915 19.7049 127.456 18.9211 126.85 18.2564C126.245 17.5916 125.508 17.0605 124.686 16.6971C123.863 16.3336 122.974 16.1459 122.075 16.1458Z" stroke="#05445E" stroke-width="4"/>
<path d="M103.333 38.75H51.6667L54.8959 67.8125H100.104L96.8751 103.333L77.5001 113.021L58.1251 103.333L56.5105 87.1875" stroke="#05445E" stroke-width="4" stroke-linecap="round" stroke-linejoin="round"/>
</svg>
