<svg width="46" height="46" viewBox="0 0 46 46" fill="none" xmlns="http://www.w3.org/2000/svg">
<path d="M17 32L20.5 28.4375L15.0625 23L20.5 17.5625L17 14L8 23L17 32ZM29 32L38 23L29 14L25.5 17.5625L30.9375 23L25.5 28.4375L29 32ZM5.5 45.5C4.125 45.5 2.9475 45.0108 1.9675 44.0325C0.989166 43.0525 0.5 41.875 0.5 40.5V5.5C0.5 4.125 0.989166 2.9475 1.9675 1.9675C2.9475 0.989166 4.125 0.5 5.5 0.5H40.5C41.875 0.5 43.0525 0.989166 44.0325 1.9675C45.0108 2.9475 45.5 4.125 45.5 5.5V40.5C45.5 41.875 45.0108 43.0525 44.0325 44.0325C43.0525 45.0108 41.875 45.5 40.5 45.5H5.5ZM5.5 40.5H40.5V5.5H5.5V40.5ZM5.5 5.5V40.5V5.5Z" fill="#189AB4"/>
</svg>
