<svg width="210" height="210" viewBox="0 0 210 210" fill="none" xmlns="http://www.w3.org/2000/svg">
<path d="M91.875 131.25C89.3958 131.25 87.3192 130.41 85.645 128.73C83.965 127.056 83.125 124.979 83.125 122.5V113.75H96.25V118.125H113.75V109.375H91.875C89.3958 109.375 87.3192 108.535 85.645 106.855C83.965 105.181 83.125 103.104 83.125 100.625V87.5C83.125 85.0208 83.965 82.9412 85.645 81.2612C87.3192 79.5871 89.3958 78.75 91.875 78.75H118.125C120.604 78.75 122.684 79.5871 124.364 81.2612C126.038 82.9412 126.875 85.0208 126.875 87.5V96.25H113.75V91.875H96.25V100.625H118.125C120.604 100.625 122.684 101.462 124.364 103.136C126.038 104.816 126.875 106.896 126.875 109.375V122.5C126.875 124.979 126.038 127.056 124.364 128.73C122.684 130.41 120.604 131.25 118.125 131.25H91.875ZM148.75 131.25C146.271 131.25 144.194 130.41 142.52 128.73C140.84 127.056 140 124.979 140 122.5V113.75H153.125V118.125H170.625V109.375H148.75C146.271 109.375 144.194 108.535 142.52 106.855C140.84 105.181 140 103.104 140 100.625V87.5C140 85.0208 140.84 82.9412 142.52 81.2612C144.194 79.5871 146.271 78.75 148.75 78.75H175C177.479 78.75 179.556 79.5871 181.23 81.2612C182.91 82.9412 183.75 85.0208 183.75 87.5V96.25H170.625V91.875H153.125V100.625H175C177.479 100.625 179.556 101.462 181.23 103.136C182.91 104.816 183.75 106.896 183.75 109.375V122.5C183.75 124.979 182.91 127.056 181.23 128.73C179.556 130.41 177.479 131.25 175 131.25H148.75ZM35 131.25C32.5208 131.25 30.4442 130.41 28.77 128.73C27.09 127.056 26.25 124.979 26.25 122.5V87.5C26.25 85.0208 27.09 82.9412 28.77 81.2612C30.4442 79.5871 32.5208 78.75 35 78.75H61.25C63.7292 78.75 65.8087 79.5871 67.4887 81.2612C69.1629 82.9412 70 85.0208 70 87.5V96.25H56.875V91.875H39.375V118.125H56.875V113.75H70V122.5C70 124.979 69.1629 127.056 67.4887 128.73C65.8087 130.41 63.7292 131.25 61.25 131.25H35Z" fill="#05445E"/>
</svg>
