<svg width="31" height="31" viewBox="0 0 31 31" fill="none" xmlns="http://www.w3.org/2000/svg">
<path d="M12.9167 20.6668H18.0833C18.4493 20.6668 18.7563 20.5428 19.0043 20.2948C19.2514 20.0477 19.375 19.7411 19.375 19.3752V16.7918H16.7917V18.0835H14.2083V12.9168H16.7917V14.2085H19.375V11.6252C19.375 11.2592 19.2514 10.9522 19.0043 10.7042C18.7563 10.4571 18.4493 10.3335 18.0833 10.3335H12.9167C12.5507 10.3335 12.2441 10.4571 11.997 10.7042C11.749 10.9522 11.625 11.2592 11.625 11.6252V19.3752C11.625 19.7411 11.749 20.0477 11.997 20.2948C12.2441 20.5428 12.5507 20.6668 12.9167 20.6668ZM15.5 28.4168C13.7132 28.4168 12.034 28.0776 10.4625 27.399C8.89098 26.7213 7.52396 25.8012 6.36146 24.6387C5.19896 23.4762 4.27886 22.1092 3.60117 20.5377C2.92261 18.9661 2.58334 17.287 2.58334 15.5002C2.58334 13.7134 2.92261 12.0342 3.60117 10.4627C4.27886 8.89114 5.19896 7.52412 6.36146 6.36162C7.52396 5.19912 8.89098 4.27859 10.4625 3.60004C12.034 2.92234 13.7132 2.5835 15.5 2.5835C17.2868 2.5835 18.966 2.92234 20.5375 3.60004C22.109 4.27859 23.476 5.19912 24.6385 6.36162C25.801 7.52412 26.7211 8.89114 27.3988 10.4627C28.0774 12.0342 28.4167 13.7134 28.4167 15.5002C28.4167 17.287 28.0774 18.9661 27.3988 20.5377C26.7211 22.1092 25.801 23.4762 24.6385 24.6387C23.476 25.8012 22.109 26.7213 20.5375 27.399C18.966 28.0776 17.2868 28.4168 15.5 28.4168ZM15.5 25.8335C18.3847 25.8335 20.8281 24.8325 22.8302 22.8304C24.8323 20.8283 25.8333 18.3849 25.8333 15.5002C25.8333 12.6154 24.8323 10.172 22.8302 8.16995C20.8281 6.16787 18.3847 5.16683 15.5 5.16683C12.6153 5.16683 10.1719 6.16787 8.16979 8.16995C6.16771 10.172 5.16667 12.6154 5.16667 15.5002C5.16667 18.3849 6.16771 20.8283 8.16979 22.8304C10.1719 24.8325 12.6153 25.8335 15.5 25.8335Z" fill="black"/>
</svg>
