<svg width="162" height="162" viewBox="0 0 162 162" fill="none" xmlns="http://www.w3.org/2000/svg">
<path d="M20.25 101.25V60.75H43.875C46.575 60.75 48.9375 61.7625 50.9625 63.7875C52.9875 65.8125 54 68.175 54 70.875V77.625C54 80.325 52.9875 82.6875 50.9625 84.7125C48.9375 86.7375 46.575 87.75 43.875 87.75H30.375V101.25H20.25ZM64.125 101.25V60.75H74.25V74.25H87.75V60.75H97.875V101.25H87.75V84.375H74.25V101.25H64.125ZM111.375 101.25V60.75H135C137.7 60.75 140.062 61.7625 142.087 63.7875C144.112 65.8125 145.125 68.175 145.125 70.875V77.625C145.125 80.325 144.112 82.6875 142.087 84.7125C140.062 86.7375 137.7 87.75 135 87.75H121.5V101.25H111.375ZM30.375 77.625H43.875V70.875H30.375V77.625ZM121.5 77.625H135V70.875H121.5V77.625Z" fill="#05445E"/>
</svg>
