<svg width="80" height="80" viewBox="0 0 80 80" fill="none" xmlns="http://www.w3.org/2000/svg">
<path d="M26 6.6665H54C64.6667 6.6665 73.3333 15.3332 73.3333 25.9998V53.9998C73.3333 59.1274 71.2964 64.0449 67.6707 67.6706C64.045 71.2963 59.1275 73.3332 54 73.3332H26C15.3333 73.3332 6.66666 64.6665 6.66666 53.9998V25.9998C6.66666 20.8723 8.70356 15.9548 12.3293 12.3291C15.955 8.7034 20.8725 6.6665 26 6.6665ZM25.3333 13.3332C22.1507 13.3332 19.0985 14.5975 16.848 16.8479C14.5976 19.0983 13.3333 22.1506 13.3333 25.3332V54.6665C13.3333 61.2998 18.7 66.6665 25.3333 66.6665H54.6667C57.8493 66.6665 60.9015 65.4022 63.1519 63.1518C65.4024 60.9014 66.6667 57.8491 66.6667 54.6665V25.3332C66.6667 18.6998 61.3 13.3332 54.6667 13.3332H25.3333ZM57.5 18.3332C58.6051 18.3332 59.6649 18.7722 60.4463 19.5536C61.2277 20.335 61.6667 21.3948 61.6667 22.4998C61.6667 23.6049 61.2277 24.6647 60.4463 25.4461C59.6649 26.2275 58.6051 26.6665 57.5 26.6665C56.3949 26.6665 55.3351 26.2275 54.5537 25.4461C53.7723 24.6647 53.3333 23.6049 53.3333 22.4998C53.3333 21.3948 53.7723 20.335 54.5537 19.5536C55.3351 18.7722 56.3949 18.3332 57.5 18.3332ZM40 23.3332C44.4203 23.3332 48.6595 25.0891 51.7851 28.2147C54.9107 31.3403 56.6667 35.5796 56.6667 39.9998C56.6667 44.4201 54.9107 48.6593 51.7851 51.785C48.6595 54.9106 44.4203 56.6665 40 56.6665C35.5797 56.6665 31.3405 54.9106 28.2149 51.785C25.0893 48.6593 23.3333 44.4201 23.3333 39.9998C23.3333 35.5796 25.0893 31.3403 28.2149 28.2147C31.3405 25.0891 35.5797 23.3332 40 23.3332ZM40 29.9998C37.3478 29.9998 34.8043 31.0534 32.9289 32.9288C31.0536 34.8041 30 37.3477 30 39.9998C30 42.652 31.0536 45.1955 32.9289 47.0709C34.8043 48.9463 37.3478 49.9998 40 49.9998C42.6522 49.9998 45.1957 48.9463 47.0711 47.0709C48.9464 45.1955 50 42.652 50 39.9998C50 37.3477 48.9464 34.8041 47.0711 32.9288C45.1957 31.0534 42.6522 29.9998 40 29.9998Z" fill="#05445E"/>
</svg>
