<svg width="139" height="139" viewBox="0 0 139 139" fill="none" xmlns="http://www.w3.org/2000/svg">
<path d="M69.4999 58.5537C75.4653 58.5537 80.3303 63.4187 80.3303 69.4999C80.3303 75.2916 75.4653 80.2145 69.4999 80.2145C63.5345 80.2145 58.6695 75.2916 58.6695 69.4999C58.6695 63.4187 63.5345 58.5537 69.4999 58.5537ZM42.6845 115.833C46.3333 118.034 54.3258 114.675 63.5345 105.987C60.5228 102.57 57.5691 98.8637 54.7891 94.9832C50.1219 94.5366 45.4819 93.8406 40.8891 92.8983C37.9353 105.292 39.0358 113.806 42.6845 115.833M46.7966 82.5891L45.117 79.6353C44.4799 81.3149 43.8428 82.9945 43.4374 84.6162C45.0012 84.9637 46.7387 85.2533 48.5341 85.5428L46.7966 82.5891ZM84.6741 78.1874L89.3653 69.4999L84.6741 60.8124C82.9366 57.7428 81.0833 55.0207 79.4037 52.2987C76.2762 52.1249 72.9749 52.1249 69.4999 52.1249C66.0249 52.1249 62.7237 52.1249 59.5962 52.2987C57.9166 55.0207 56.0633 57.7428 54.3258 60.8124L49.6345 69.4999L54.3258 78.1874C56.0633 81.257 57.9166 83.9791 59.5962 86.7012C62.7237 86.8749 66.0249 86.8749 69.4999 86.8749C72.9749 86.8749 76.2762 86.8749 79.4037 86.7012C81.0833 83.9791 82.9366 81.257 84.6741 78.1874M69.4999 39.2674C68.3995 40.5416 67.2412 41.8737 66.0828 43.4374H72.917C71.7587 41.8737 70.6003 40.5416 69.4999 39.2674ZM69.4999 99.7324C70.6003 98.4582 71.7587 97.1262 72.917 95.5624H66.0828C67.2412 97.1262 68.3995 98.4582 69.4999 99.7324ZM96.2574 23.1666C92.6666 20.9658 84.6741 24.3249 75.4653 33.0124C78.477 36.4295 81.4308 40.1362 84.2108 44.0166C88.9599 44.4799 93.6512 45.1749 98.1108 46.1016C101.065 33.7074 99.9641 25.1937 96.2574 23.1666ZM92.2033 56.4107L93.8828 59.3645C94.5199 57.6849 95.157 56.0053 95.5624 54.3837C93.9987 54.0362 92.2612 53.7466 90.4658 53.457L92.2033 56.4107M100.601 15.5795C109.115 20.4445 110.042 33.2441 106.451 48.1866C121.162 52.5303 131.76 59.712 131.76 69.4999C131.76 79.2878 121.162 86.4695 106.451 90.8133C110.042 105.756 109.115 118.555 100.601 123.42C92.1453 128.285 80.6199 122.725 69.4999 112.127C58.3799 122.725 46.8545 128.285 38.3408 123.42C29.8849 118.555 28.9583 105.756 32.5491 90.8133C17.8383 86.4695 7.2395 79.2878 7.2395 69.4999C7.2395 59.712 17.8383 52.5303 32.5491 48.1866C28.9583 33.2441 29.8849 20.4445 38.3408 15.5795C46.8545 10.7145 58.3799 16.2745 69.4999 26.8733C80.6199 16.2745 92.1453 10.7145 100.601 15.5795ZM98.9216 69.4999C100.891 73.8437 102.628 78.1874 104.076 82.5891C116.239 78.9403 123.073 73.7278 123.073 69.4999C123.073 65.272 116.239 60.0595 104.076 56.4107C102.628 60.8124 100.891 65.1562 98.9216 69.4999ZM40.0783 69.4999C38.1091 65.1562 36.3716 60.8124 34.9237 56.4107C22.7612 60.0595 15.927 65.272 15.927 69.4999C15.927 73.7278 22.7612 78.9403 34.9237 82.5891C36.3716 78.1874 38.1091 73.8437 40.0783 69.4999ZM92.2033 82.5891L90.4658 85.5428C92.2612 85.2533 93.9987 84.9637 95.5624 84.6162C95.157 82.9945 94.5199 81.3149 93.8828 79.6353L92.2033 82.5891M75.4653 105.987C84.6741 114.675 92.6666 118.034 96.2574 115.833C99.9641 113.806 101.065 105.292 98.1108 92.8983C93.6512 93.8249 88.9599 94.5199 84.2108 94.9832C81.4308 98.8637 78.477 102.57 75.4653 105.987M46.7966 56.4107L48.5341 53.457C46.7387 53.7466 45.0012 54.0362 43.4374 54.3837C43.8428 56.0053 44.4799 57.6849 45.117 59.3645L46.7966 56.4107ZM63.5345 33.0124C54.3258 24.3249 46.3333 20.9658 42.6845 23.1666C39.0358 25.1937 37.9353 33.7074 40.8891 46.1016C45.4819 45.1592 50.1219 44.4632 54.7891 44.0166C57.5691 40.1362 60.5228 36.4295 63.5345 33.0124V33.0124Z" fill="#05445E"/>
</svg>
