<svg width="142" height="142" viewBox="0 0 142 142" fill="none" xmlns="http://www.w3.org/2000/svg">
<path d="M0 25.0588H106.5V131.559H0V25.0588ZM27.9858 114.046C30.3525 119.075 35.0267 123.216 43.0142 123.216C51.8892 123.216 57.9833 118.483 57.9833 108.129V73.9305H47.925V107.892C47.925 112.981 45.8542 114.282 42.6 114.282C39.1683 114.282 37.7483 111.915 36.1508 109.135L27.9858 114.046M63.3675 112.981C66.3258 118.779 72.3017 123.216 81.65 123.216C91.1167 123.216 98.2167 118.305 98.2167 109.253C98.2167 100.911 93.4242 97.183 84.9042 93.5147L82.4192 92.4497C78.1 90.6155 76.2658 89.373 76.2658 86.4147C76.2658 83.9888 78.1 82.0955 81.0583 82.0955C83.8983 82.0955 85.7917 83.338 87.5075 86.4147L95.2583 81.2672C92.0042 75.5872 87.3892 73.398 81.0583 73.398C72.1242 73.398 66.385 79.078 66.385 86.5922C66.385 94.7572 71.1775 98.603 78.3958 101.68L80.8808 102.745C85.4958 104.756 88.2175 105.999 88.2175 109.431C88.2175 112.271 85.555 114.341 81.4133 114.341C76.5025 114.341 73.6625 111.797 71.5325 108.247L63.3675 112.981Z" fill="#05445E"/>
</svg>
