<svg width="80" height="80" viewBox="0 0 80 80" fill="none" xmlns="http://www.w3.org/2000/svg">
<path d="M40 6.6665C35.6226 6.6665 31.2881 7.5287 27.2439 9.20385C23.1997 10.879 19.5251 13.3343 16.4298 16.4296C10.1786 22.6808 6.66667 31.1593 6.66667 39.9998C6.66667 54.7332 16.2333 67.2332 29.4667 71.6665C31.1333 71.9332 31.6667 70.8998 31.6667 69.9998V64.3665C22.4333 66.3665 20.4667 59.8998 20.4667 59.8998C18.9333 56.0332 16.7667 54.9998 16.7667 54.9998C13.7333 52.9332 17 52.9998 17 52.9998C20.3333 53.2332 22.1 56.4332 22.1 56.4332C25 61.4998 29.9 59.9998 31.8 59.1998C32.1 57.0332 32.9667 55.5665 33.9 54.7332C26.5 53.8998 18.7333 51.0332 18.7333 38.3332C18.7333 34.6332 20 31.6665 22.1667 29.2998C21.8333 28.4665 20.6667 24.9998 22.5 20.4998C22.5 20.4998 25.3 19.5998 31.6667 23.8998C34.3 23.1665 37.1667 22.7998 40 22.7998C42.8333 22.7998 45.7 23.1665 48.3333 23.8998C54.7 19.5998 57.5 20.4998 57.5 20.4998C59.3333 24.9998 58.1667 28.4665 57.8333 29.2998C60 31.6665 61.2667 34.6332 61.2667 38.3332C61.2667 51.0665 53.4667 53.8665 46.0333 54.6998C47.2333 55.7332 48.3333 57.7665 48.3333 60.8665V69.9998C48.3333 70.8998 48.8667 71.9665 50.5667 71.6665C63.8 67.1998 73.3333 54.7332 73.3333 39.9998C73.3333 35.6224 72.4711 31.2879 70.796 27.2437C69.1208 23.1995 66.6655 19.5249 63.5702 16.4296C60.4749 13.3343 56.8003 10.879 52.7561 9.20385C48.7119 7.5287 44.3774 6.6665 40 6.6665Z" fill="#05445E"/>
</svg>
