<svg width="116" height="116" viewBox="0 0 116 116" fill="none" xmlns="http://www.w3.org/2000/svg">
<path d="M77.3333 61.8666V54.1333H85.0666V61.8666H77.3333Z" fill="#05445E"/>
<path fill-rule="evenodd" clip-rule="evenodd" d="M58.0001 3.25578L108.267 32.5806V83.4195L58.0001 112.752L7.7334 83.4195V32.5806L58.0001 3.24805V3.25578ZM48.9675 30.9334C42.1336 30.9334 35.5795 33.6482 30.7472 38.4805C25.9148 43.3128 23.2001 49.8669 23.2001 56.7008V59.2992C23.2011 63.6901 24.3242 68.0079 26.4627 71.8429C28.6013 75.6778 31.6843 78.9026 35.4193 81.2113C39.1542 83.52 43.4172 84.836 47.8036 85.0343C52.19 85.2326 56.5544 84.3068 60.4825 82.3446L63.599 80.7979L60.1345 73.8766L57.0257 75.4232C54.2777 76.7981 51.2239 77.4477 48.1543 77.3104C45.0847 77.1731 42.1011 76.2535 39.4869 74.6388C36.8726 73.024 34.7145 70.7679 33.2175 68.0845C31.7205 65.4012 30.9342 62.3797 30.9334 59.307V56.7086C30.9337 53.6354 31.7194 50.6132 33.2159 47.929C34.7124 45.2447 36.87 42.9874 39.4839 41.3713C42.0979 39.7552 45.0815 38.8339 48.1516 38.6949C51.2216 38.5558 54.2763 39.2037 57.0257 40.5768L60.1345 42.1312L63.599 35.2176L60.4825 33.6632C56.9056 31.8711 52.9605 30.9365 48.9598 30.9334H48.9675ZM69.6001 38.6667V46.4H61.8667V54.1334H69.6001V61.8667H61.8667V69.6H69.6001V77.3334H77.3334V69.6H85.0667V77.3334H92.8001V69.6H100.533V61.8667H92.8001V54.1334H100.533V46.4H92.8001V38.6667H85.0667V46.4H77.3334V38.6667H69.6001Z" fill="#05445E"/>
</svg>
