<svg width="75" height="73" viewBox="0 0 75 73" fill="none" xmlns="http://www.w3.org/2000/svg">
<path d="M67.5 63.875H60V23.9531L37.5 41.0625L15 23.9531V63.875H7.5V9.125H12L37.5 28.5156L63 9.125H67.5M67.5 0H7.5C3.3375 0 0 4.06063 0 9.125V63.875C0 66.2951 0.790176 68.6161 2.1967 70.3274C3.60322 72.0386 5.51088 73 7.5 73H67.5C69.4891 73 71.3968 72.0386 72.8033 70.3274C74.2098 68.6161 75 66.2951 75 63.875V9.125C75 6.7049 74.2098 4.38392 72.8033 2.67265C71.3968 0.961381 69.4891 0 67.5 0Z" fill="#05445E"/>
</svg>
